<?xml version="1.0" standalone="no"?>
<!DOCTYPE svg PUBLIC "-//W3C//DTD SVG 20010904//EN"
 "http://www.w3.org/TR/2001/REC-SVG-20010904/DTD/svg10.dtd">
<svg version="1.0" xmlns="http://www.w3.org/2000/svg"
 width="414.000000pt" height="414.000000pt" viewBox="0 0 414.000000 414.000000"
 preserveAspectRatio="xMidYMid meet">
<metadata>
Created by potrace 1.11, written by Peter Selinger 2001-2013
</metadata>
<g transform="translate(0.000000,414.000000) scale(0.100000,-0.100000)"
fill="#000000" stroke="none">
<path d="M1880 3874 c-14 -2 -65 -9 -115 -15 -203 -24 -502 -124 -650 -217
-280 -176 -462 -341 -609 -552 -81 -116 -109 -167 -164 -292 -120 -270 -155
-435 -156 -738 0 -225 19 -376 69 -535 13 -44 25 -85 25 -91 0 -6 -18 -16 -41
-23 -35 -10 -40 -16 -35 -34 2 -12 12 -85 21 -162 22 -197 64 -458 74 -468 6
-6 62 1 138 16 70 14 152 29 180 33 l53 7 66 -62 c481 -451 1116 -611 1761
-446 222 57 384 135 603 290 52 37 100 73 105 79 6 6 44 44 86 84 l76 72 124
-20 c68 -11 174 -30 236 -42 62 -12 114 -20 116 -18 3 3 25 149 50 325 33 238
42 323 33 331 -6 6 -42 19 -81 29 -38 10 -75 22 -81 27 -8 6 -3 38 18 111 45
162 62 291 62 487 1 282 -47 504 -164 760 -264 577 -809 971 -1458 1054 -112
14 -277 19 -342 10z m440 -104 c352 -61 653 -217 919 -474 215 -209 356 -429
439 -686 83 -257 108 -490 81 -738 -12 -111 -39 -250 -67 -337 -18 -59 -19
-60 -53 -57 -18 1 -38 7 -43 12 -5 5 4 58 22 127 40 154 52 256 52 438 0 171
-12 281 -47 415 -162 630 -714 1120 -1368 1216 -152 22 -439 15 -578 -15 -434
-95 -807 -345 -1044 -701 -28 -41 -60 -95 -73 -120 -12 -25 -28 -52 -35 -60
-20 -23 -81 -175 -109 -276 -86 -299 -88 -617 -6 -910 12 -43 27 -88 33 -101
13 -29 4 -39 -45 -48 l-37 -7 -31 101 c-67 215 -91 483 -62 696 6 44 15 112
21 150 22 156 131 423 249 605 98 153 296 364 415 445 311 211 549 305 877
345 116 14 348 4 490 -20z m35 -140 c136 -29 230 -61 360 -124 189 -91 355
-212 495 -362 163 -176 318 -453 375 -674 58 -222 71 -465 36 -665 -20 -113
-66 -284 -80 -298 -5 -5 -37 -1 -72 7 -169 42 -561 95 -870 117 l-167 12 24
26 c14 14 35 42 48 61 12 19 61 94 108 165 91 138 179 240 215 250 84 23 42
-214 -46 -260 -25 -13 -31 -13 -41 0 -9 11 -8 21 4 46 20 41 21 39 -9 39 -61
0 -107 -97 -83 -173 13 -41 14 -42 64 -45 46 -3 54 0 95 36 76 68 129 193 129
308 0 166 -105 221 -239 124 l-41 -30 6 59 c4 33 2 61 -3 64 -5 3 -40 -6 -79
-19 -63 -24 -265 -74 -289 -73 -5 0 13 9 41 20 92 35 107 80 38 113 -77 36
-222 49 -544 50 -404 1 -538 -22 -548 -91 -4 -25 14 -39 85 -69 32 -13 50 -24
40 -24 -18 0 -198 26 -252 36 -28 5 -29 5 -10 -9 46 -33 240 -84 463 -122 176
-30 656 -36 810 -10 51 9 51 6 22 -111 -30 -115 -91 -234 -155 -299 -52 -54
-54 -55 -110 -55 l-57 0 52 39 c50 38 130 124 151 163 24 45 59 162 50 171 -4
4 -28 7 -52 5 -43 -3 -43 -3 -59 -58 -27 -89 -86 -195 -144 -257 l-54 -58
-128 -7 c-71 -3 -197 -10 -281 -13 l-151 -7 -59 45 c-100 76 -209 219 -265
348 -35 79 -54 83 -32 6 32 -112 127 -286 200 -366 20 -23 33 -41 29 -41 -14
0 -263 -31 -370 -46 -151 -21 -368 -61 -438 -81 -74 -20 -77 -17 -112 102 -83
285 -87 589 -10 884 38 146 142 364 242 503 73 102 264 297 363 370 105 77
265 162 400 213 97 36 177 56 360 89 14 2 120 3 235 1 168 -2 230 -7 310 -25z
m-518 -2156 c27 -8 43 -51 43 -120 0 -43 -4 -56 -22 -68 -27 -19 -108 -21
-131 -3 -23 17 -35 140 -16 163 24 30 76 41 126 28z m143 -56 c0 -70 10 -94
34 -85 13 5 16 21 16 77 l0 70 30 0 c26 0 30 -4 30 -27 0 -16 3 -50 6 -78 7
-61 -7 -83 -59 -95 -42 -9 -96 2 -109 22 -4 7 -8 50 -8 96 l0 82 30 0 30 0 0
-62z m315 32 c0 -20 -6 -26 -27 -28 -28 -3 -28 -4 -28 -73 l0 -69 -30 0 -30 0
0 69 c0 65 -2 70 -22 73 -17 2 -24 11 -26 31 l-3 28 83 -3 c81 -3 83 -4 83
-28z m-667 -2 c7 -7 12 -26 12 -44 0 -19 6 -34 15 -38 19 -7 20 -79 2 -94 -7
-6 -44 -13 -82 -14 l-70 -3 -11 90 c-6 50 -9 93 -5 97 15 17 124 21 139 6z
m917 -13 c0 -16 -8 -21 -39 -25 -35 -4 -41 -9 -49 -39 -10 -39 -5 -46 43 -58
25 -7 35 -15 35 -29 0 -17 -7 -19 -56 -19 -77 0 -89 13 -89 89 0 91 15 108 93
104 54 -3 62 -5 62 -23z m177 -1 l31 -16 -6 -76 c-7 -89 -18 -102 -87 -102
-69 0 -90 20 -90 85 0 57 13 105 33 117 21 13 87 9 119 -8z m-1291 -44 c18
-29 29 -62 31 -95 3 -47 2 -50 -23 -53 -20 -2 -28 2 -32 17 -8 33 -45 27 -49
-6 -2 -22 -9 -29 -30 -31 -28 -3 -29 -3 -42 69 -2 9 1 42 6 73 9 49 13 57 37
62 14 3 31 7 36 9 24 8 40 -3 66 -45z m1502 13 c4 -2 7 -16 7 -30 0 -24 -2
-25 -40 -19 -31 5 -40 3 -40 -8 0 -8 10 -16 23 -18 16 -2 22 -10 22 -28 0 -21
-5 -25 -30 -25 -25 0 -30 -4 -33 -27 -3 -23 -8 -28 -31 -28 -15 0 -30 2 -33 5
-2 3 1 44 8 93 8 48 14 91 14 95 0 9 117 0 133 -10z m129 -24 c62 -13 71 -19
62 -43 -6 -15 -15 -17 -45 -13 -48 6 -61 -10 -20 -24 17 -6 31 -15 31 -19 0
-25 -15 -40 -39 -40 -20 0 -29 -7 -38 -29 -9 -24 -15 -28 -37 -24 -31 6 -30 4
-10 116 18 96 14 93 96 76z m-1982 -51 c19 -83 21 -88 36 -88 9 0 14 11 14 29
0 21 6 32 21 36 12 4 25 3 29 -2 13 -13 30 -87 22 -94 -12 -11 -146 -39 -153
-31 -7 8 -39 154 -39 177 0 12 16 21 47 24 6 0 16 -23 23 -51z m2200 2 c26 -7
35 -27 22 -47 -5 -8 -19 -9 -45 -3 -21 4 -39 4 -43 -1 -3 -5 8 -12 25 -15 25
-5 31 -12 31 -32 0 -23 -3 -24 -35 -19 -48 8 -47 -16 2 -29 39 -10 48 -21 33
-44 -8 -12 -18 -12 -72 -1 -35 7 -66 16 -70 19 -3 4 3 49 15 100 l21 93 45 -7
c25 -4 57 -10 71 -14z m-2395 -62 c21 -77 22 -79 40 -72 10 4 13 14 9 29 -4
17 0 26 15 35 28 14 38 7 51 -38 15 -56 14 -58 -50 -75 -96 -27 -94 -28 -119
68 -25 95 -23 115 12 115 21 0 27 -8 42 -62z m2601 1 c7 -5 10 -19 7 -30 -6
-21 -15 -21 -75 -3 -10 3 -18 1 -18 -5 0 -6 11 -13 25 -17 18 -5 25 -13 25
-31 0 -24 -3 -25 -36 -20 -45 8 -41 -12 6 -28 37 -12 44 -23 31 -44 -8 -12
-18 -12 -69 -1 -89 18 -87 15 -61 111 12 46 26 89 31 95 7 9 23 8 66 -3 31 -8
62 -19 68 -24z m-2727 -14 c35 -49 65 -125 54 -136 -5 -4 -18 -10 -31 -14 -19
-5 -25 -2 -29 15 -4 14 -12 20 -27 18 -16 -2 -20 -9 -18 -30 1 -16 -1 -28 -5
-28 -4 0 -18 -3 -30 -6 -19 -5 -23 1 -39 49 -13 41 -15 65 -8 102 8 43 13 50
44 61 52 19 54 18 89 -31z m1986 -375 c106 -10 201 -15 313 -19 19 -1 32 -5
30 -11 -1 -5 -45 -43 -96 -83 -159 -128 -401 -240 -627 -293 -112 -26 -135
-28 -345 -28 -198 -1 -237 2 -330 22 -256 56 -492 165 -673 310 -38 30 -65 58
-60 62 4 5 51 11 103 14 52 3 149 10 215 16 66 6 188 15 270 20 195 11 1045 4
1200 -10z m508 -50 c13 -12 -141 -146 -256 -223 -215 -144 -458 -241 -712
-283 -142 -24 -409 -24 -545 -1 -332 57 -657 211 -883 417 -37 35 -66 68 -64
74 2 6 23 14 46 17 46 6 54 2 141 -72 192 -164 512 -303 795 -345 149 -22 428
-15 568 15 274 59 548 193 747 365 63 53 67 55 110 50 25 -3 49 -9 53 -14z"/>
<path d="M1860 3343 c-50 -18 -64 -78 -40 -165 16 -56 42 -66 91 -33 51 33 50
61 -1 58 -34 -1 -35 -1 -12 14 31 22 29 53 -4 53 l-25 0 27 23 c43 37 19 70
-36 50z"/>
<path d="M2113 3340 c-26 -11 -30 -38 -7 -47 13 -5 14 -15 8 -57 -3 -28 -13
-56 -22 -62 -9 -7 -13 -18 -8 -29 5 -14 14 -17 47 -12 54 7 66 20 50 51 -15
27 -7 116 10 116 5 0 9 9 9 19 0 30 -41 39 -87 21z"/>
<path d="M2300 3332 c-24 -7 -60 -44 -60 -61 0 -8 5 -30 12 -48 11 -30 10 -35
-11 -49 -25 -18 -25 -57 0 -62 9 -2 30 9 48 23 33 29 39 57 19 101 -11 24 -10
28 14 46 37 26 20 64 -22 50z"/>
<path d="M1663 3299 c-28 -18 -33 -27 -33 -60 0 -21 9 -63 21 -94 18 -48 24
-55 48 -55 33 0 87 51 78 74 -7 19 -38 21 -55 4 -8 -8 -12 -8 -12 -1 0 6 7 16
15 23 8 7 15 21 15 32 0 16 -5 19 -26 15 l-25 -4 21 22 c24 25 24 58 0 62 -8
2 -30 -6 -47 -18z"/>
<path d="M1495 3236 c-41 -39 -41 -47 4 -130 30 -57 57 -79 70 -57 5 8 5 26
-1 43 -8 23 -7 33 7 48 24 27 12 54 -20 46 -24 -6 -24 -6 -8 22 16 28 13 62
-6 62 -5 0 -26 -16 -46 -34z"/>
<path d="M2516 3241 c-23 -25 -56 -114 -56 -150 0 -33 14 -41 70 -41 50 0 69
22 38 44 -12 9 -28 16 -34 16 -8 0 -6 18 8 60 27 79 14 115 -26 71z"/>
<path d="M1349 3169 c-16 -17 -29 -40 -29 -51 0 -39 79 -148 107 -148 16 0 17
34 2 62 -8 14 -8 23 0 31 14 14 14 54 0 62 -5 4 -20 -1 -31 -12 l-21 -18 17
33 c17 33 14 72 -6 72 -5 0 -23 -14 -39 -31z"/>
<path d="M2674 3166 c-4 -10 -2 -22 4 -28 14 -14 -37 -98 -59 -98 -22 0 -32
-25 -16 -39 28 -22 65 -30 82 -17 10 7 15 18 11 24 -9 15 42 102 59 102 24 0
28 21 9 41 -28 27 -82 36 -90 15z"/>
<path d="M2775 3038 c-59 -90 -56 -158 5 -93 12 13 27 22 32 19 16 -10 58 6
58 23 0 9 -8 22 -17 29 -17 13 -17 14 0 8 9 -3 28 -3 42 0 36 9 33 41 -6 55
-60 21 -76 15 -114 -41z"/>
<path d="M1177 3052 c-31 -34 -18 -89 33 -139 44 -43 76 -50 106 -22 32 30 30
55 -5 111 -44 69 -99 89 -134 50z m100 -108 c-10 -10 -47 26 -47 45 0 11 7 8
27 -11 15 -15 24 -31 20 -34z"/>
<path d="M2903 2935 c-66 -70 -69 -100 -12 -128 20 -9 44 -15 53 -11 23 9 20
39 -6 58 -23 15 -23 15 6 5 24 -8 33 -7 45 6 15 15 14 18 -8 36 l-25 20 27 -6
c50 -13 62 -11 65 11 3 22 -23 45 -67 59 -20 6 -31 -2 -78 -50z"/>
<path d="M1037 2932 c-63 -70 81 -218 155 -159 24 19 30 51 13 73 -15 19 -16
18 -38 -8 -21 -26 -24 -27 -45 -12 -12 8 -27 24 -32 35 -10 18 -9 19 14 13 37
-9 45 20 16 52 -28 29 -61 31 -83 6z"/>
<path d="M1579 2907 c-50 -27 -89 -85 -89 -135 0 -91 120 -244 219 -278 20 -7
37 -11 39 -9 2 2 -4 17 -12 34 -19 36 -21 82 -4 99 21 21 77 13 201 -29 131
-44 275 -63 313 -41 16 10 14 11 -18 12 -67 0 -141 22 -268 78 -98 43 -139 56
-190 60 -76 5 -90 -5 -100 -71 l-6 -42 -12 38 c-15 53 -1 84 45 104 55 23 140
5 272 -56 133 -62 203 -81 299 -81 108 0 152 29 152 100 0 47 -24 94 -62 123
-53 41 -158 73 -158 49 0 -5 18 -14 39 -21 45 -13 101 -64 101 -91 0 -59 -50
-79 -140 -56 -71 18 -101 33 -256 126 -191 114 -275 134 -365 87z"/>
<path d="M1772 1373 c3 -40 6 -48 23 -48 13 0 21 8 23 24 6 40 -7 71 -29 71
-18 0 -20 -5 -17 -47z"/>
<path d="M1555 1400 c-3 -6 1 -13 10 -16 19 -8 30 0 20 15 -8 14 -22 14 -30 1z"/>
<path d="M1565 1330 c-4 -7 -3 -16 2 -21 12 -12 45 0 40 15 -5 15 -34 19 -42
6z"/>
<path d="M2636 1348 c-5 -29 -3 -44 6 -50 22 -13 33 -3 39 38 8 45 5 54 -20
54 -14 0 -20 -11 -25 -42z"/>
<path d="M1350 1350 c0 -19 20 -27 33 -13 8 7 -11 33 -24 33 -5 0 -9 -9 -9
-20z"/>
<path d="M687 1223 c-14 -13 -6 -33 13 -33 11 0 20 4 20 9 0 13 -26 32 -33 24z"/>
</g>
</svg>
